<?xml version="1.0" encoding="utf-8"?>
<!-- Generator: Adobe Illustrator 19.1.0, SVG Export Plug-In . SVG Version: 6.00 Build 0)  -->
<svg version="1.1" id="Layer_1" xmlns="http://www.w3.org/2000/svg" xmlns:xlink="http://www.w3.org/1999/xlink" x="0px" y="0px"
	 viewBox="0 0 110 110" style="enable-background:new 0 0 110 110;" xml:space="preserve">
<style type="text/css">
	.st0{fill:#1E90FF;}
</style>
<g>
	<circle class="st0" cx="54.9" cy="50.1" r="4.6"/>
	<g>
		<path class="st0" d="M54.9,67.2c-9.4,0-17.1-7.7-17.1-17.1s7.7-17.1,17.1-17.1S72,40.7,72,50.1S64.4,67.2,54.9,67.2z M54.9,36.7
			c-7.4,0-13.4,6-13.4,13.4s6,13.4,13.4,13.4s13.4-6,13.4-13.4S62.3,36.7,54.9,36.7z"/>
	</g>
	<g>
		<path class="st0" d="M94.7,89.1c2.4,1.6,3.1,4.9,1.5,7.4c-1.6,2.4-4.9,3.1-7.4,1.5"/>
	</g>
	<path class="st0" d="M0,0v110h110V0H0z M98.8,97.7L98.8,97.7c-2.8,3.9-7.9,5-11.5,2.5v0c0,0-5.5-5.7-11.6-12
		c-6.1,3.4-13.2,5.3-20.7,5.3c-23.9,0-43.3-19.4-43.3-43.3c0-23.9,19.4-43.3,43.3-43.3c23.9,0,43.3,19.4,43.3,43.3
		c0,11.8-4.8,22.6-12.5,30.4c6.4,3,11.5,5.5,11.5,5.5C100.8,88.5,101.5,93.8,98.8,97.7z"/>
	<path class="st0" d="M91.8,104.2c-1.9,0-3.7-0.6-5.3-1.7l-0.2-0.2c-4.5-4.6-26.7-27.6-27.3-28.4c-0.9-1.1-0.8-2.6,0.1-4
		c0.8-1.1,2.2-2,3.5-1.5c0.8,0.3,27.6,13,35.7,16.9l0.3,0.2c2.1,1.5,3.5,3.8,3.8,6.5c0.3,2.6-0.3,5.3-1.9,7.6
		c-1.6,2.2-3.9,3.8-6.5,4.4C93.2,104.1,92.5,104.2,91.8,104.2z M88.7,99.7c1.3,0.9,2.9,1.1,4.6,0.8c1.8-0.4,3.3-1.4,4.4-3
		c1.1-1.5,1.5-3.3,1.3-5.1c-0.2-1.7-1-3.1-2.3-4C94.1,87.2,66.3,74,61.9,71.9c0,0,0,0,0,0C64,74.2,78.7,89.4,88.7,99.7z"/>
</g>
</svg>
