<?xml version="1.0" encoding="utf-8"?>
<!-- Generator: Adobe Illustrator 19.1.0, SVG Export Plug-In . SVG Version: 6.00 Build 0)  -->
<svg version="1.1" id="Layer_2" xmlns="http://www.w3.org/2000/svg" xmlns:xlink="http://www.w3.org/1999/xlink" x="0px" y="0px"
	 viewBox="0 0 110 110" style="enable-background:new 0 0 110 110;" xml:space="preserve">
<style type="text/css">
	.st0{fill:#FFFFFF;}
</style>
<g>
	<circle class="st0" cx="54" cy="50.7" r="4.5"/>
	<g>
		<path class="st0" d="M54,67.7C44.5,67.7,37,60,37,50.7S44.5,33.8,54,33.8s16.9,7.6,16.9,16.9S63.3,67.7,54,67.7z M54,37.3
			c-7.3,0-13.4,6-13.4,13.4s6,13.4,13.4,13.4s13.3-6,13.3-13.4S61.3,37.3,54,37.3z"/>
	</g>
	<g>
		<path class="st0" d="M93.5,89.5c2.4,1.7,3.1,4.9,1.4,7.3c-1.7,2.4-4.9,3.1-7.3,1.4"/>
	</g>
	<path class="st0" d="M72.2,87.3c-5.5,2.8-11.7,4.3-18.4,4.3c-22.6,0-41-18.4-41-41s18.4-41,41-41s41,18.4,41,41
		c0,11.7-5,22.4-13,29.9c1.4,0.7,2.8,1.3,4.1,2c8.1-8.2,13.2-19.4,13.2-31.9C99.1,25.7,78.9,5.4,54,5.4S8.7,25.8,8.7,50.7
		S28.9,95.9,54,95.9c7.8,0,15.1-2,21.5-5.4C74.3,89.5,73.3,88.4,72.2,87.3z"/>
	<path class="st0" d="M90.6,104.6c-1.9,0-3.8-0.6-5.3-1.7l-0.2-0.2c-4.4-4.5-26.6-27.5-27.2-28.2c-0.9-1.1-0.9-2.7,0.1-4
		c0.8-1.1,2.2-2,3.5-1.6c0.9,0.3,27.5,13,35.7,16.8l0.2,0.1c2.1,1.6,3.4,3.8,3.9,6.5c0.3,2.7-0.3,5.3-1.9,7.5
		c-1.6,2.2-3.9,3.8-6.4,4.3C92.1,104.5,91.4,104.6,90.6,104.6z M87.5,100.1c1.3,0.9,2.9,1.1,4.5,0.8c1.8-0.3,3.3-1.4,4.3-3
		c1.1-1.6,1.6-3.3,1.3-5.1c-0.2-1.7-1-3.1-2.3-4c-2.5-1.2-30.1-14.4-34.7-16.4l0,0C62.9,74.7,77.6,89.8,87.5,100.1z"/>
</g>
</svg>
